<?xml version="1.0" ?>
<svg xmlns="http://www.w3.org/2000/svg" version="1.1" width="512" height="512">
  <defs/>
  <g>
    <path d="M 365.2641296386719 281.1064453125 C 355.5567321777344 259.4363098144531 377.863037109375 282.3612060546875 342.1409606933594 212.38856506347656" stroke-width="5.0" fill="none" stroke="rgb(0, 0, 0)" stroke-opacity="1.0" stroke-linecap="round" stroke-linejoin="round"/>
    <path d="M 303.64764404296875 277.1453857421875 C 309.3102111816406 268.4276428222656 313.4930419921875 310.7712097167969 328.228271484375 305.4249572753906" stroke-width="5.0" fill="none" stroke="rgb(0, 0, 0)" stroke-opacity="1.0" stroke-linecap="round" stroke-linejoin="round"/>
    <path d="M 274.8992004394531 197.48097229003906 C 307.72882080078125 252.5503692626953 299.3460388183594 253.20323181152344 300.1364440917969 256.0597229003906" stroke-width="5.0" fill="none" stroke="rgb(0, 0, 0)" stroke-opacity="1.0" stroke-linecap="round" stroke-linejoin="round"/>
    <path d="M 366.563232421875 318.48980712890625 C 353.3277893066406 336.2944030761719 346.0213317871094 335.70611572265625 347.086669921875 329.6945495605469" stroke-width="5.0" fill="none" stroke="rgb(0, 0, 0)" stroke-opacity="1.0" stroke-linecap="round" stroke-linejoin="round"/>
    <path d="M 294.9652404785156 228.03565979003906 C 311.4627685546875 248.2216796875 286.9493103027344 273.0805969238281 320.3658752441406 281.49334716796875" stroke-width="5.0" fill="none" stroke="rgb(0, 0, 0)" stroke-opacity="1.0" stroke-linecap="round" stroke-linejoin="round"/>
    <path d="M 335.7017517089844 211.39340209960938 C 271.5033264160156 159.4922332763672 226.00660705566406 164.38038635253906 183.06837463378906 175.59042358398438" stroke-width="5.0" fill="none" stroke="rgb(0, 0, 0)" stroke-opacity="1.0" stroke-linecap="round" stroke-linejoin="round"/>
    <path d="M 276.4291076660156 118.53911590576172 C 281.8661193847656 97.23284912109375 162.6959991455078 135.87255859375 183.51376342773438 170.66070556640625" stroke-width="5.0" fill="none" stroke="rgb(0, 0, 0)" stroke-opacity="1.0" stroke-linecap="round" stroke-linejoin="round"/>
    <path d="M 180.6962127685547 216.90167236328125 C 222.6748504638672 258.1517639160156 179.79348754882812 181.0782470703125 181.6353759765625 262.7164001464844" stroke-width="5.0" fill="none" stroke="rgb(0, 0, 0)" stroke-opacity="1.0" stroke-linecap="round" stroke-linejoin="round"/>
    <path d="M 259.5461120605469 222.33056640625 C 198.4380340576172 231.7944793701172 226.3173370361328 198.83901977539062 267.541259765625 214.92669677734375" stroke-width="5.0" fill="none" stroke="rgb(0, 0, 0)" stroke-opacity="1.0" stroke-linecap="round" stroke-linejoin="round"/>
    <path d="M 218.79989624023438 166.93255615234375 C 164.0780029296875 179.45082092285156 131.28712463378906 203.97589111328125 205.19602966308594 217.63385009765625" stroke-width="5.0" fill="none" stroke="rgb(0, 0, 0)" stroke-opacity="1.0" stroke-linecap="round" stroke-linejoin="round"/>
    <path d="M 265.91387939453125 442.6139831542969 C 290.80328369140625 449.33935546875 297.1866760253906 417.3531494140625 343.12493896484375 408.5209045410156" stroke-width="5.0" fill="none" stroke="rgb(0, 0, 0)" stroke-opacity="1.0" stroke-linecap="round" stroke-linejoin="round"/>
    <path d="M 300.2691955566406 383.86785888671875 C 382.10272216796875 361.395751953125 341.5856018066406 396.6728820800781 331.93212890625 306.4103088378906" stroke-width="5.0" fill="none" stroke="rgb(0, 0, 0)" stroke-opacity="1.0" stroke-linecap="round" stroke-linejoin="round"/>
    <path d="M 269.2537841796875 424.3236083984375 C 229.70986938476562 377.9878234863281 254.21688842773438 386.8111267089844 297.092041015625 383.5479736328125" stroke-width="5.0" fill="none" stroke="rgb(0, 0, 0)" stroke-opacity="1.0" stroke-linecap="round" stroke-linejoin="round"/>
    <path d="M 345.0999755859375 376.8414611816406 C 375.4435729980469 366.9692687988281 375.9688720703125 426.86639404296875 342.1479187011719 406.0365905761719" stroke-width="5.0" fill="none" stroke="rgb(0, 0, 0)" stroke-opacity="1.0" stroke-linecap="round" stroke-linejoin="round"/>
    <path d="M 258.4212646484375 300.0578918457031 C 259.3510437011719 303.4380798339844 259.1942443847656 304.9139709472656 259.8920593261719 301.0257263183594" stroke-width="5.0" fill="none" stroke="rgb(0, 0, 0)" stroke-opacity="1.0" stroke-linecap="round" stroke-linejoin="round"/>
    <path d="M 180.61312866210938 260.27606201171875 C 221.26358032226562 338.90447998046875 194.3099822998047 330.24346923828125 256.9320373535156 348.4660949707031" stroke-width="5.0" fill="none" stroke="rgb(0, 0, 0)" stroke-opacity="1.0" stroke-linecap="round" stroke-linejoin="round"/>
  </g>
</svg>
