<?xml version="1.0" ?>
<svg xmlns="http://www.w3.org/2000/svg" version="1.1" width="512" height="512">
  <defs/>
  <g>
    <path d="M 144.21548461914062 174.5343017578125 C 119.00942993164062 58.89051818847656 310.7118835449219 62.052337646484375 368.2481384277344 128.59564208984375" stroke-width="5.0" fill="none" stroke="rgb(0, 0, 0)" stroke-opacity="1.0" stroke-linecap="round" stroke-linejoin="round"/>
    <path d="M 396.00927734375 330.29266357421875 C 473.927978515625 469.68670654296875 339.48602294921875 791.544189453125 404.2143859863281 397.14404296875" stroke-width="5.0" fill="none" stroke="rgb(0, 0, 0)" stroke-opacity="1.0" stroke-linecap="round" stroke-linejoin="round"/>
    <path d="M 357.2835388183594 178.91357421875 C 355.170166015625 24.818710327148438 296.10260009765625 156.56838989257812 406.42218017578125 294.2101745605469" stroke-width="5.0" fill="none" stroke="rgb(0, 0, 0)" stroke-opacity="1.0" stroke-linecap="round" stroke-linejoin="round"/>
    <path d="M 335.8247985839844 91.37290954589844 C 134.1096649169922 63.68339538574219 237.64920043945312 82.67172241210938 382.5335693359375 160.27078247070312" stroke-width="5.0" fill="none" stroke="rgb(0, 0, 0)" stroke-opacity="1.0" stroke-linecap="round" stroke-linejoin="round"/>
    <path d="M 256.96337890625 249.0282440185547 C 264.70867919921875 364.0648193359375 267.87994384765625 322.1647033691406 325.73638916015625 264.9872131347656" stroke-width="5.0" fill="none" stroke="rgb(0, 0, 0)" stroke-opacity="1.0" stroke-linecap="round" stroke-linejoin="round"/>
    <path d="M 203.751708984375 381.76947021484375 C 177.216552734375 509.5540771484375 167.79141235351562 492.5252685546875 239.39175415039062 485.15252685546875" stroke-width="5.0" fill="none" stroke="rgb(0, 0, 0)" stroke-opacity="1.0" stroke-linecap="round" stroke-linejoin="round"/>
    <path d="M 104.53645324707031 351.1618347167969 C 144.04669189453125 233.070068359375 143.33908081054688 306.6619873046875 153.8854217529297 226.64743041992188" stroke-width="5.0" fill="none" stroke="rgb(0, 0, 0)" stroke-opacity="1.0" stroke-linecap="round" stroke-linejoin="round"/>
    <path d="M 185.90969848632812 182.16867065429688 C 252.95285034179688 360.7056579589844 125.95095825195312 325.7267761230469 165.0714111328125 138.98876953125" stroke-width="5.0" fill="none" stroke="rgb(0, 0, 0)" stroke-opacity="1.0" stroke-linecap="round" stroke-linejoin="round"/>
    <path d="M 380.8549499511719 93.13359069824219 C 349.79522705078125 191.16429138183594 299.2808837890625 138.62860107421875 446.2373046875 118.73973083496094" stroke-width="5.0" fill="none" stroke="rgb(0, 0, 0)" stroke-opacity="1.0" stroke-linecap="round" stroke-linejoin="round"/>
    <path d="M 154.91775512695312 236.35716247558594 C 134.31192016601562 74.22113037109375 216.15110778808594 146.00584411621094 59.8016357421875 179.47573852539062" stroke-width="5.0" fill="none" stroke="rgb(0, 0, 0)" stroke-opacity="1.0" stroke-linecap="round" stroke-linejoin="round"/>
    <path d="M 127.58663940429688 484.4809265136719 C 94.63529968261719 308.127197265625 78.9295654296875 325.76165771484375 189.779052734375 303.30145263671875" stroke-width="5.0" fill="none" stroke="rgb(0, 0, 0)" stroke-opacity="1.0" stroke-linecap="round" stroke-linejoin="round"/>
    <path d="M 256.15704345703125 407.28765869140625 C 158.1317138671875 361.7164001464844 166.25439453125 349.2398986816406 193.24249267578125 421.46307373046875" stroke-width="5.0" fill="none" stroke="rgb(0, 0, 0)" stroke-opacity="1.0" stroke-linecap="round" stroke-linejoin="round"/>
    <path d="M 111.53486633300781 423.3939208984375 C 158.8905029296875 391.1990966796875 192.3507080078125 461.76007080078125 129.59051513671875 321.41015625" stroke-width="5.0" fill="none" stroke="rgb(0, 0, 0)" stroke-opacity="1.0" stroke-linecap="round" stroke-linejoin="round"/>
    <path d="M 333.8569030761719 484.3046875 C 306.55975341796875 351.5194396972656 314.257080078125 487.4678039550781 337.120361328125 488.48138427734375" stroke-width="5.0" fill="none" stroke="rgb(0, 0, 0)" stroke-opacity="1.0" stroke-linecap="round" stroke-linejoin="round"/>
    <path d="M 206.06661987304688 372.09619140625 C 309.9198913574219 336.78717041015625 195.51702880859375 282.3964538574219 206.4308624267578 486.0361328125" stroke-width="5.0" fill="none" stroke="rgb(0, 0, 0)" stroke-opacity="1.0" stroke-linecap="round" stroke-linejoin="round"/>
    <path d="M 217.71295166015625 371.27264404296875 C 181.44754028320312 304.0348205566406 125.47537231445312 245.2034149169922 185.64138793945312 374.92559814453125" stroke-width="5.0" fill="none" stroke="rgb(0, 0, 0)" stroke-opacity="1.0" stroke-linecap="round" stroke-linejoin="round"/>
    <path d="M 220.6868438720703 322.4192199707031 C 204.84954833984375 192.187255859375 175.60498046875 302.1340637207031 210.19973754882812 298.0058898925781" stroke-width="5.0" fill="none" stroke="rgb(0, 0, 0)" stroke-opacity="1.0" stroke-linecap="round" stroke-linejoin="round"/>
    <path d="M 206.59152221679688 118.99140930175781 C 185.46279907226562 15.397003173828125 146.83587646484375 122.96998596191406 197.94949340820312 128.09689331054688" stroke-width="5.0" fill="none" stroke="rgb(0, 0, 0)" stroke-opacity="1.0" stroke-linecap="round" stroke-linejoin="round"/>
    <path d="M 73.56159973144531 95.384033203125 C 186.58816528320312 163.6733856201172 202.93939208984375 124.65664672851562 147.41943359375 89.93803405761719" stroke-width="5.0" fill="none" stroke="rgb(0, 0, 0)" stroke-opacity="1.0" stroke-linecap="round" stroke-linejoin="round"/>
    <path d="M 355.1538391113281 294.06427001953125 C 301.719482421875 244.91281127929688 293.99566650390625 185.16836547851562 294.01593017578125 131.24530029296875" stroke-width="5.0" fill="none" stroke="rgb(0, 0, 0)" stroke-opacity="1.0" stroke-linecap="round" stroke-linejoin="round"/>
    <path d="M 318.84844970703125 393.9623718261719 C 318.5751037597656 441.3758544921875 310.77545166015625 449.47235107421875 351.2139587402344 359.190673828125" stroke-width="5.0" fill="none" stroke="rgb(0, 0, 0)" stroke-opacity="1.0" stroke-linecap="round" stroke-linejoin="round"/>
    <path d="M 306.7019348144531 288.7579650878906 C 395.0669860839844 305.9433898925781 424.9361572265625 334.3129577636719 358.04766845703125 264.8935241699219" stroke-width="5.0" fill="none" stroke="rgb(0, 0, 0)" stroke-opacity="1.0" stroke-linecap="round" stroke-linejoin="round"/>
    <path d="M 279.6410827636719 -46.784027099609375 C 260.53125 203.9467010498047 221.32620239257812 59.484649658203125 328.73199462890625 129.14822387695312" stroke-width="5.0" fill="none" stroke="rgb(0, 0, 0)" stroke-opacity="1.0" stroke-linecap="round" stroke-linejoin="round"/>
    <path d="M 320.5762939453125 62.82182312011719 C 297.28424072265625 178.36770629882812 327.7340393066406 142.29815673828125 356.88153076171875 271.8661804199219" stroke-width="5.0" fill="none" stroke="rgb(0, 0, 0)" stroke-opacity="1.0" stroke-linecap="round" stroke-linejoin="round"/>
    <path d="M 290.9900207519531 201.899658203125 C 243.14231872558594 202.44375610351562 262.0105895996094 199.97454833984375 280.78607177734375 195.1409149169922" stroke-width="5.0" fill="none" stroke="rgb(0, 0, 0)" stroke-opacity="1.0" stroke-linecap="round" stroke-linejoin="round"/>
    <path d="M 231.3829345703125 105.17890930175781 C 255.6243438720703 210.41522216796875 252.3319854736328 214.55963134765625 250.93125915527344 212.24960327148438" stroke-width="5.0" fill="none" stroke="rgb(0, 0, 0)" stroke-opacity="1.0" stroke-linecap="round" stroke-linejoin="round"/>
    <path d="M 332.32330322265625 434.068359375 C 370.8226623535156 362.2086486816406 367.2097473144531 343.0025939941406 391.43304443359375 328.5810546875" stroke-width="5.0" fill="none" stroke="rgb(0, 0, 0)" stroke-opacity="1.0" stroke-linecap="round" stroke-linejoin="round"/>
    <path d="M 362.22235107421875 303.05706787109375 C 339.75201416015625 331.209716796875 323.39599609375 353.4927978515625 326.93402099609375 355.4054870605469" stroke-width="5.0" fill="none" stroke="rgb(0, 0, 0)" stroke-opacity="1.0" stroke-linecap="round" stroke-linejoin="round"/>
    <path d="M 242.76165771484375 184.39013671875 C 248.46142578125 94.884521484375 332.32928466796875 176.68801879882812 273.93939208984375 91.37692260742188" stroke-width="5.0" fill="none" stroke="rgb(0, 0, 0)" stroke-opacity="1.0" stroke-linecap="round" stroke-linejoin="round"/>
    <path d="M 181.68682861328125 306.919921875 C 182.64300537109375 194.0817413330078 153.6607666015625 157.14173889160156 164.21670532226562 341.95538330078125" stroke-width="5.0" fill="none" stroke="rgb(0, 0, 0)" stroke-opacity="1.0" stroke-linecap="round" stroke-linejoin="round"/>
    <path d="M 173.41281127929688 203.47891235351562 C 217.42723083496094 40.628387451171875 147.28030395507812 127.18026733398438 244.83323669433594 150.12156677246094" stroke-width="5.0" fill="none" stroke="rgb(0, 0, 0)" stroke-opacity="1.0" stroke-linecap="round" stroke-linejoin="round"/>
    <path d="M -95.73614501953125 84.11878967285156 C -192.9111328125 38.364501953125 -146.51492309570312 32.3726806640625 29.151626586914062 30.61517333984375" stroke-width="5.0" fill="none" stroke="rgb(0, 0, 0)" stroke-opacity="1.0" stroke-linecap="round" stroke-linejoin="round"/>
  </g>
</svg>
